<svg xmlns="http://www.w3.org/2000/svg" width="600" height="200" viewBox="0 0 600 200">
  <defs>
    <linearGradient id="g" x1="0%" y1="0%" x2="100%" y2="100%">
      <stop offset="0%" style="stop-color:#ea580c"/>
      <stop offset="100%" style="stop-color:#f97316"/>
    </linearGradient>
  </defs>
  <rect width="600" height="200" fill="url(#g)"/>
  <rect x="30" y="40" width="170" height="130" rx="6" fill="rgba(255,255,255,0.1)" stroke="rgba(255,255,255,0.2)" stroke-width="1"/>
  <rect x="30" y="40" width="170" height="22" rx="6" fill="rgba(255,255,255,0.2)"/>
  <rect x="38" y="72" width="154" height="8" rx="2" fill="rgba(255,255,255,0.3)"/>
  <rect x="38" y="88" width="154" height="8" rx="2" fill="rgba(255,255,255,0.2)"/>
  <rect x="38" y="104" width="154" height="8" rx="2" fill="rgba(255,255,255,0.3)"/>
  <rect x="38" y="120" width="154" height="8" rx="2" fill="rgba(255,255,255,0.2)"/>
  <rect x="38" y="136" width="80" height="8" rx="2" fill="rgba(255,255,255,0.3)"/>
  <line x1="30" y1="40" x2="200" y2="40" stroke="rgba(255,255,255,0)" stroke-width="0"/>
  <rect x="88" y="40" width="1" height="130" fill="rgba(255,255,255,0.15)"/>
  <rect x="146" y="40" width="1" height="130" fill="rgba(255,255,255,0.15)"/>
  <text x="240" y="80" font-family="Arial" font-size="20" font-weight="bold" fill="rgba(255,255,255,0.95)">Excel &amp; Tally</text>
  <text x="240" y="106" font-family="Arial" font-size="14" fill="rgba(255,255,255,0.7)">Data Migration</text>
  <text x="240" y="128" font-family="Arial" font-size="14" fill="rgba(255,255,255,0.7)">Dashboard &amp; MIS</text>
  <circle cx="520" cy="100" r="50" fill="rgba(255,255,255,0.05)"/>
</svg>
